PathFileType	4	(X/Y/Z)	C:/Users/beibeiliu/ov580/test_trc/capture2\sequence.14_training_dense_left.trc
DataRate	CameraRate	NumFrames	NumMarkers	Units	OrigDataRate	OrigDataStartFrame	OrigNumFrames
120	120	7	19	mm	120	301	400
Frame#	Time	ThumbCMC			ThumbMCP			ThumbIP			ThumbTip			IndexMCP			IndexPIP			IndexTip			MiddleMCP			MiddlePIP			MiddleTip			RingMCP			RingPIP			RingTip			PinkyMCP			PinkyPIP			PinkyTip			BackHand1			BackHand2			BackHand3	
		X0	Y0	Z0	X1	Y1	Z1	X2	Y2	Z2	X3	Y3	Z3	X4	Y4	Z4	X5	Y5	Z5	X6	Y6	Z6	X7	Y7	Z7	X8	Y8	Z8	X9	Y9	Z9	X10	Y10	Z10	X11	Y11	Z11	X12	Y12	Z12	X13	Y13	Z13	X14	Y14	Z14	X15	Y15	Z15	X16	Y16	Z16	X17	Y17	Z17	X18	Y18	Z18	
300	2.5	-129.084	56.6085	-32.7482	-112.866	60.7967	-68.0098	-102.852	53.7628	-91.1122	-86.4792	35.5286	-104.92	-140.131	2.36658	-87.8379	-144.623	-0.943122	-110.792	-139.193	-14.0902	-131.826	-109.875	7.75371	-94.5525	-96.4611	34.1301	-102.391	-102.212	45.5431	-69.0141	-92.1899	4.86718	-88.755	-82.0892	31.2537	-94.4655	-89.1901	47.3942	-61.2696	-80.7872	-13.1124	-72.1576	-75.2773	-16.9312	-89.3426	-71.9071	-27.1514	-108.919	-107.131	-0.843925	-29.9629	-110.116	7.3376	-4.92005	-131.96	14.9412	-23.2935	
301	2.50833	-127.114	53.6988	-33.7985	-113.322	61.1935	-67.6333	-103.764	57.9277	-91.7322	-89.4832	39.0003	-103.265	-137.883	3.88596	-83.0891	-141.378	-2.50772	-107.462	-141.589	-12.9773	-130.653	-110.054	7.43629	-90.0435	-94.614	36.063	-98.3695	-98.7708	43.3367	-65.2172	-93.6994	6.20735	-84.9974	-78.1615	33.514	-92.8009	-91.4469	49.3137	-62.2784	-78.2375	-12.3025	-69.72	-73.1039	-16.0148	-89.9189	-70.8095	-26.6334	-109.13	-101.034	-1.90789	-27.8614	-104.32	7.31772	-1.86078	-133.092	15.4453	-21.6518	
302	2.51667	-127.509	56.2111	-32.3881	-113.48	63.2988	-67.1229	-105.18	58.298	-88.5947	-87.3741	36.7953	-105.594	-140.197	4.79101	-81.3953	-140.428	-3.66996	-104.516	-139.247	-16.0635	-130.469	-107.391	8.60462	-91.9239	-95.6375	36.755	-98.7719	-101.026	46.7265	-66.8519	-90.3546	7.38288	-87.9464	-76.8801	33.8935	-92.6684	-88.7441	50.2808	-61.0382	-77.2958	-9.22501	-69.6295	-73.4954	-14.0156	-90.4411	-67.6207	-25.3184	-110.049	-99.2711	-0.9304	-26.4153	-97.6275	9.16558	-0.421929	-129.473	18.4466	-17.9261	
303	2.525	-124.264	55.2366	-29.2286	-114.259	63.8451	-64.7998	-104.812	57.1836	-87.2874	-89.0772	40.8352	-105.022	-133.721	1.70264	-79.0623	-134.982	-6.96203	-105.67	-135.387	-16.2774	-125.997	-106.674	8.63485	-93.2452	-93.3684	36.1748	-97.5429	-102.648	45.651	-64.3074	-86.0105	6.41328	-82.8763	-80.8881	34.6199	-93.665	-86.5052	51.0096	-63.1515	-75.8399	-6.71446	-67.7641	-67.2895	-14.1518	-91.446	-64.2826	-22.8787	-107.619	-95.8174	-1.48209	-28.543	-94.2057	7.53731	-0.676579	-124.69	16.7708	-16.2655	
304	2.53333	-121.714	53.2839	-28.6798	-112.393	64.7469	-62.9272	-103.735	54.687	-87.1428	-87.0066	37.1435	-100.386	-131.413	1.8779	-78.6063	-132.612	-7.12431	-104.431	-130.593	-18.1618	-124.946	-101.963	7.57526	-88.0481	-91.5791	32.4481	-99.5447	-96.5861	44.6303	-62.2535	-85.0415	8.4149	-85.4618	-80.1923	38.0986	-91.9136	-83.1449	52.0058	-65.1419	-70.3785	-6.78807	-68.9003	-66.7838	-10.9407	-89.8055	-62.0559	-23.4545	-107.864	-94.1148	0.34615	-23.067	-93.8534	12.6695	-0.134662	-124.51	16.7678	-16.1078	
305	2.54167	-120.802	51.7206	-28.4407	-108.855	60.7313	-58.428	-103.697	55.5838	-88.3217	-85.7742	37.7337	-102.167	-132.611	0.57099	-79.7463	-130.872	-8.41569	-100.384	-129.804	-20.2298	-125.804	-100.541	5.85243	-84.5197	-92.362	32.8268	-98.755	-98.3747	45.4077	-62.5416	-81.0989	6.95987	-82.1165	-72.4656	34.7858	-91.7242	-83.6335	52.2162	-63.806	-65.1854	-5.96119	-63.9975	-62.6767	-11.5738	-87.1693	-59.7437	-23.1349	-108.817	-88.5804	0.901694	-23.2065	-87.4178	8.58794	1.22503	-118.815	15.7465	-12.3886	
306	2.55	-118.471	52.2095	-24.6221	-107.279	58.5529	-59.0044	-102.305	52.661	-88.7971	-86.8898	39.0187	-102.303	-126.392	-2.34814	-76.6007	-127.243	-11.2664	-102	-126.162	-20.8954	-122.883	-99.2326	5.09635	-85.2092	-90.8259	32.415	-97.3618	-97.7581	43.8511	-60.9232	-78.1355	7.45024	-83.2229	-76.0645	38.9646	-89.2592	-80.2435	52.2205	-62.1022	-66.3915	-4.89061	-64.4832	-61.1682	-10.2205	-88.5798	-55.0212	-20.928	-107.36	-86.6144	-0.252546	-23.8464	-84.8375	10.4151	2.63801	-113.56	12.5865	-11.9398	
